<svg width="24" height="25" viewBox="0 0 24 25" fill="none" xmlns="http://www.w3.org/2000/svg">
    <path
        d="M16.7 19.48H7.30002C6.88002 19.48 6.41002 19.15 6.27002 18.75L2.13002 7.16999C1.54002 5.50999 2.23002 4.99999 3.65002 6.01999L7.55002 8.80999C8.20002 9.25999 8.94002 9.02999 9.22002 8.29999L10.98 3.60999C11.54 2.10999 12.47 2.10999 13.03 3.60999L14.79 8.29999C15.07 9.02999 15.81 9.25999 16.45 8.80999L20.11 6.19999C21.67 5.07999 22.42 5.64999 21.78 7.45999L17.74 18.77C17.59 19.15 17.12 19.48 16.7 19.48Z"
        stroke="white" stroke-width="2" stroke-linecap="round" stroke-linejoin="round" />
    <path d="M6.5 22.5H17.5" stroke="white" stroke-width="2" stroke-linecap="round" stroke-linejoin="round" />
    <path d="M9.5 14.5H14.5" stroke="white" stroke-width="2" stroke-linecap="round" stroke-linejoin="round" />
</svg>